<?xml version="1.0" encoding="UTF-8"?>
<svg id="Capa_1" data-name="Capa 1" xmlns="http://www.w3.org/2000/svg" viewBox="0 0 1080 353.07">
  <defs>
    <style>
      .cls-1 {
        fill: #07a7e1;
      }
    </style>
  </defs>
  <polygon class="cls-1" points="128.83 68.63 85.4 178.03 84.15 178.03 68.64 68.63 0 68.63 40.99 245.42 111.2 245.42 199.98 68.63 128.83 68.63"/>
  <path class="cls-1" d="M350.53,140.41c-.05-39.81-28.63-76.79-79.09-76.79-55.17,0-98.68,44.2-98.6,102.18.07,51.41,34.28,84.63,91.01,84.63,21,0,44.82-4.7,61.42-11.6l9.33-52.66c-16.6,7.21-38.22,13.17-57.97,13.17-21.94,0-37.31-7.52-42.35-24.76h110.02c2.81-7.84,6.24-20.06,6.22-34.17ZM290.98,138.22h-53.6c5.31-13.17,15.64-23.51,31.63-23.51,14.42,0,22.58,8.78,22.59,18.18,0,1.88-.31,3.76-.62,5.33Z"/>
  <path class="cls-1" d="M482.39,63.62c-23.82,0-41.99,11.28-56.7,28.21h-.63l-2.85-23.19h-51.09l-26.72,176.78h67.08l14.91-98.74c2.18-13.79,10-23.51,23.48-23.51,10.97,0,16.31,7.21,16.32,17.87,0,1.25,0,3.14-.31,4.7l-15.22,99.68h67.08l17.71-116.92c.62-4.39.93-8.15.92-12.22-.04-32.6-21.7-52.66-53.98-52.66Z"/>
  <path class="cls-1" d="M633,124.2h44.82l8.39-54.54h-45.14l6.21-40.75h-65.19l-6.22,40.75h-23.82l-8.08,54.54h23.82l-7.77,49.21c-.93,5.64-1.24,10.97-1.23,15.99.05,38.55,26.1,60.81,70.29,60.81,15.36,0,30.4-2.82,37.92-5.96l8.7-56.11c-8.46,2.51-18.18,4.07-25.38,4.07-15.67,0-24.14-5.64-24.16-20.37,0-2.2.31-4.7.62-7.52l6.21-40.12Z"/>
  <path class="cls-1" d="M776.02,225.44l2.54,22.25h49.52l15.84-105.32c.31-2.2,1.24-8.15,1.23-15.67-.06-40.43-28.61-60.81-71.23-60.81-20.06,0-41.37,4.39-60.48,14.73l-9.02,54.85c15.97-9.4,34.46-15.99,51.7-15.99,20.37,0,26.34,9.09,26.36,20.37l-.31,3.76-.62,5.33c-8.47-4.07-20.07-8.15-35.74-8.15-39.5,0-67.98,25.7-67.94,60.81.04,30.09,21.07,51.09,51.16,51.09,19.43,0,34.78-8.78,46.98-27.27ZM735.85,190.65c-.01-9.09,9.07-15.36,21.61-15.36,6.9,0,13.48,1.88,19.44,4.39l-.31,2.2c-1.55,11.6-13.14,20.69-26.3,20.69-11.28,0-14.43-6.58-14.43-11.91Z"/>
  <polygon class="cls-1" points="1063.71 2.41 948.03 73.42 1080 73.42 1063.71 2.41"/>
  <path class="cls-1" d="M886.15,314.59c-5.6,0-10.11,4.52-10.11,10.11s4.52,10.12,10.11,10.12,10.12-4.52,10.12-10.12-4.52-10.11-10.12-10.11Z"/>
  <path class="cls-1" d="M940.79,283.16l-2.62,6.77c-2.98-5.24-7.86-8.22-14.36-8.22-13.55,0-25.2,12.91-25.2,30.62,0,14.18,8.22,23.21,19.05,23.21,6.32,0,11.38-2.8,15.71-8.58l.54,7.13h16.62l7.77-50.94h-17.52ZM925.71,318.48c-4.79,0-7.77-3.34-7.77-8.4,0-5.69,3.7-11.2,9.75-11.2,4.79,0,7.77,3.34,7.77,8.4,0,5.6-3.61,11.2-9.75,11.2Z"/>
  <path class="cls-1" d="M996.06,281.72c-6.32,0-12.19,3.16-15.98,8.58l-.27-7.13h-16.44l-10.66,69.9h19.33l3.97-25.74c2.53,5.24,7.77,8.22,13.46,8.22,13.01,0,25.2-12.83,25.2-30.89,0-13.82-8.22-22.94-18.61-22.94ZM985.77,318.39c-4.88,0-7.68-3.43-7.68-8.49,0-5.6,3.7-11.11,9.85-11.11,4.97,0,7.67,3.34,7.67,8.31,0,5.6-3.52,11.29-9.84,11.29Z"/>
  <path class="cls-1" d="M1053.77,281.72c-6.32,0-12.19,3.16-15.98,8.58l-.27-7.13h-16.44l-10.66,69.9h19.33l3.97-25.74c2.53,5.24,7.77,8.22,13.46,8.22,13.01,0,25.2-12.83,25.2-30.89,0-13.82-8.22-22.94-18.61-22.94ZM1043.48,318.39c-4.88,0-7.68-3.43-7.68-8.49,0-5.6,3.7-11.11,9.85-11.11,4.97,0,7.67,3.34,7.67,8.31,0,5.6-3.52,11.29-9.84,11.29Z"/>
  <polygon class="cls-1" points="956.35 250.43 1032.52 250.43 984.88 161.73 1056.34 73.65 982.68 73.65 951.03 120.66 930.03 73.65 857.93 73.65 903.07 159.53 847.83 229.78 750.29 353.07 836.93 353.07 937.71 202.26 956.35 250.43"/>
</svg>