<?xml version="1.0" encoding="UTF-8"?>
<svg id="Capa_1" data-name="Capa 1" xmlns="http://www.w3.org/2000/svg" viewBox="0 0 1080 353.07">
  <defs>
    <style>
      .cls-1 {
        fill: #fff;
      }

      .cls-2 {
        fill: #07a7e1;
      }
    </style>
  </defs>
  <path class="cls-1" d="M0,68.63h68.64l15.51,109.39h1.25l43.42-109.39h71.15l-88.78,176.78H40.99L0,68.63Z"/>
  <path class="cls-1" d="M263.86,250.43c-56.73,0-90.94-33.23-91.01-84.63-.08-57.99,43.43-102.18,98.6-102.18,50.46,0,79.04,36.99,79.09,76.79.02,14.1-3.41,26.33-6.22,34.17h-110.02c5.04,17.24,20.41,24.76,42.35,24.76,19.75,0,41.37-5.96,57.97-13.17l-9.33,52.66c-16.6,6.9-40.42,11.6-61.42,11.6ZM290.98,138.22c.31-1.57.62-3.45.62-5.33-.01-9.4-8.18-18.18-22.59-18.18-15.99,0-26.32,10.34-31.63,23.51h53.6Z"/>
  <path class="cls-1" d="M422.22,68.63l2.85,23.19h.63c14.71-16.93,32.87-28.21,56.7-28.21,32.28,0,53.94,20.06,53.98,52.66,0,4.07-.3,7.84-.92,12.22l-17.71,116.92h-67.08l15.22-99.68c.31-1.57.31-3.45.31-4.7-.01-10.66-5.35-17.87-16.32-17.87-13.48,0-21.3,9.72-23.48,23.51l-14.91,98.74h-67.08l26.72-176.78h51.09Z"/>
  <path class="cls-1" d="M876.04,324.71c0-5.6,4.52-10.11,10.11-10.11s10.12,4.52,10.12,10.11-4.52,10.12-10.12,10.12-10.11-4.52-10.11-10.12Z"/>
  <path class="cls-1" d="M950.55,334.1h-16.62l-.54-7.13c-4.33,5.78-9.39,8.58-15.71,8.58-10.84,0-19.05-9.03-19.05-23.21,0-17.7,11.65-30.62,25.2-30.62,6.5,0,11.38,2.98,14.36,8.22l2.62-6.77h17.52l-7.77,50.94ZM925.71,318.48c6.14,0,9.75-5.6,9.75-11.2,0-5.06-2.98-8.4-7.77-8.4-6.05,0-9.75,5.51-9.75,11.2,0,5.06,2.98,8.4,7.77,8.4Z"/>
  <path class="cls-1" d="M979.81,283.16l.27,7.13c3.79-5.42,9.66-8.58,15.98-8.58,10.39,0,18.61,9.12,18.61,22.94,0,18.06-12.19,30.89-25.2,30.89-5.69,0-10.93-2.98-13.46-8.22l-3.97,25.74h-19.33l10.66-69.9h16.44ZM985.77,318.39c6.32,0,9.84-5.69,9.84-11.29,0-4.97-2.71-8.31-7.67-8.31-6.14,0-9.85,5.51-9.85,11.11,0,5.06,2.8,8.49,7.68,8.49Z"/>
  <path class="cls-1" d="M1037.52,283.16l.27,7.13c3.79-5.42,9.66-8.58,15.98-8.58,10.39,0,18.61,9.12,18.61,22.94,0,18.06-12.19,30.89-25.2,30.89-5.69,0-10.93-2.98-13.46-8.22l-3.97,25.74h-19.33l10.66-69.9h16.44ZM1043.48,318.39c6.32,0,9.84-5.69,9.84-11.29,0-4.97-2.71-8.31-7.67-8.31-6.14,0-9.85,5.51-9.85,11.11,0,5.06,2.8,8.49,7.68,8.49Z"/>
  <g>
    <path class="cls-2" d="M633,124.2h44.82l8.39-54.54h-45.14l6.21-40.75h-65.19l-6.22,40.75h-23.82l-8.08,54.54h23.82l-7.77,49.21c-.93,5.64-1.24,10.97-1.23,15.99.05,38.55,26.1,60.81,70.29,60.81,15.36,0,30.4-2.82,37.92-5.96l8.7-56.11c-8.46,2.51-18.18,4.07-25.38,4.07-15.67,0-24.14-5.64-24.16-20.37,0-2.2.31-4.7.62-7.52l6.21-40.12Z"/>
    <path class="cls-2" d="M776.02,225.44l2.54,22.25h49.52l15.84-105.32c.31-2.2,1.24-8.15,1.23-15.67-.06-40.43-28.61-60.81-71.23-60.81-20.06,0-41.37,4.39-60.48,14.73l-9.02,54.85c15.97-9.4,34.46-15.99,51.7-15.99,20.37,0,26.34,9.09,26.36,20.37l-.31,3.76-.62,5.33c-8.47-4.07-20.07-8.15-35.74-8.15-39.5,0-67.98,25.7-67.94,60.81.04,30.09,21.07,51.09,51.16,51.09,19.43,0,34.78-8.78,46.98-27.27ZM735.85,190.65c-.01-9.09,9.07-15.36,21.61-15.36,6.9,0,13.48,1.88,19.44,4.39l-.31,2.2c-1.55,11.6-13.14,20.69-26.3,20.69-11.28,0-14.43-6.58-14.43-11.91Z"/>
    <polygon class="cls-2" points="1063.71 2.41 948.03 73.42 1080 73.42 1063.71 2.41"/>
    <polygon class="cls-2" points="982.68 73.65 951.03 120.66 930.03 73.65 857.93 73.65 903.07 159.53 847.84 229.78 750.29 353.07 836.93 353.07 937.71 202.26 956.35 250.43 1032.52 250.43 984.88 161.73 1056.34 73.65 982.68 73.65"/>
  </g>
</svg>